              <svg id="sw-js-blob-svg" viewBox="0 0 100 100" xmlns="http://www.w3.org/2000/svg" version="1.1"> <defs> <linearGradient id="sw-gradient" x1="0" x2="1" y1="1" y2="0"> <stop id="stop1" stop-color="rgba(248, 117, 55, 1)" offset="0%"></stop> <stop id="stop2" stop-color="rgba(251, 168, 31, 1)" offset="100%"></stop> </linearGradient> </defs> <path fill="url(#sw-gradient)" d="M2.4,-5.4C3.1,-3.8,3.5,-3,4.4,-2.3C5.4,-1.5,6.8,-0.8,9.9,1.8C13,4.3,17.6,8.6,19.6,14.4C21.6,20.2,20.8,27.5,17.1,27.3C13.4,27,6.7,19.2,0.9,17.7C-4.9,16.1,-9.8,20.9,-14.4,21.6C-19,22.3,-23.1,19,-27,14.8C-30.8,10.5,-34.4,5.3,-32.3,1.2C-30.1,-2.8,-22.4,-5.6,-18.4,-9.7C-14.5,-13.9,-14.4,-19.3,-12,-19.9C-9.5,-20.5,-4.8,-16.3,-1.9,-13C0.9,-9.6,1.8,-7.1,2.4,-5.4Z" width="100%" height="100%" transform="translate(50 50)" style="transition: all 0.3s ease 0s;" stroke-width="0"></path> </svg>